<svg width="2560" height="1900" viewBox="0 0 2560 1900" fill="none" xmlns="http://www.w3.org/2000/svg">
<path opacity="0.563035" fill-rule="evenodd" clip-rule="evenodd" d="M-1742 10.4318H2726.09V1777.18C2726.09 1777.18 2934.88 2134.59 1929.27 1628.22C923.657 1121.86 -195.146 1969.47 -771.514 1741.57C-1347.88 1513.67 488.558 229.778 -164.426 66.6181C-817.41 -96.5417 -1742 10.4318 -1742 10.4318Z" fill="#5832FF"/>
<path fill-rule="evenodd" clip-rule="evenodd" d="M-1059 8.68664H2595.05L2595.12 1784.08C2595.12 1784.08 2892.69 2139.86 2007.53 1597.84C1122.37 1055.83 212.375 1397.41 -258.986 1191.98C-730.347 986.541 348.003 300.643 -186.014 153.57C-720.032 6.49725 -1059 8.68664 -1059 8.68664Z" fill="url(#paint0_linear_0_364)"/>
<g opacity="0.240676">
<ellipse cx="2203.49" cy="578.57" rx="24.5" ry="24" stroke="white" stroke-width="8"/>
<ellipse cx="1973.49" cy="338.57" rx="24.5" ry="24" stroke="white" stroke-width="8"/>
<ellipse cx="2488.49" cy="73.2639" rx="39.5" ry="38.6939" stroke="white" stroke-width="8"/>
<ellipse cx="1843.49" cy="608.774" rx="14.5" ry="14.2041" stroke="white" stroke-width="8"/>
<rect x="2261.28" y="324.498" width="72" height="72" transform="rotate(-23 2261.28 324.498)" stroke="white" stroke-width="8"/>
<rect x="2235.95" y="907.445" width="42" height="42" transform="rotate(-23 2235.95 907.445)" stroke="white" stroke-width="8"/>
<rect x="1979.06" y="732.742" width="22" height="22" transform="rotate(-23 1979.06 732.742)" stroke="white" stroke-width="8"/>
<path d="M1706.85 447.824L1704.26 438.165L1706.09 437.676L1708.67 447.335L1718.29 444.759L1718.78 446.584L1709.16 449.16L1711.74 458.775L1709.91 459.264L1707.34 449.649L1697.68 452.238L1697.19 450.413L1706.85 447.824Z" fill="white"/>
<path d="M2256.85 827.825L2254.26 818.165L2256.09 817.676L2258.67 827.336L2268.29 824.759L2268.78 826.584L2259.16 829.161L2261.74 838.776L2259.91 839.265L2257.34 829.65L2247.68 832.238L2247.19 830.413L2256.85 827.825Z" fill="white"/>
<path d="M1985.82 547.228L1980.86 528.724L1984.35 527.787L1989.31 546.291L2007.73 541.356L2008.67 544.852L1990.25 549.787L1995.18 568.205L1991.69 569.142L1986.75 550.724L1968.25 555.682L1967.31 552.186L1985.82 547.228Z" fill="white"/>
<path d="M1800.3 61.9294L1794.16 39.0038L1798.49 37.8431L1804.63 60.7688L1827.45 54.6542L1828.61 58.9857L1805.79 65.1003L1811.91 87.9203L1807.57 89.081L1801.46 66.261L1778.53 72.4039L1777.37 68.0723L1800.3 61.9294Z" fill="white"/>
<path d="M2543.75 536.034L2534.05 499.842L2540.89 498.01L2550.59 534.202L2586.61 524.549L2588.44 531.387L2552.42 541.04L2562.07 577.065L2555.23 578.897L2545.58 542.872L2509.39 552.57L2507.56 545.732L2543.75 536.034Z" fill="white"/>
</g>
<path opacity="0.201409" fill-rule="evenodd" clip-rule="evenodd" d="M-18.0989 420.155L52.0701 373.155V467.155L-18.0989 420.155Z" stroke="#673AB7" stroke-width="13"/>
<ellipse opacity="0.203246" cx="1718.49" cy="1334.69" rx="98.5" ry="98" stroke="#00BCD4" stroke-width="21"/>
<rect opacity="0.203637" x="169.986" y="1315.69" width="196" height="196" rx="29" fill="#D1C4E9"/>
<path fill-rule="evenodd" clip-rule="evenodd" d="M202.06 1289.54C198.165 1288.5 194.161 1290.81 193.117 1294.7C192.073 1298.6 194.385 1302.6 198.28 1303.65C202.176 1304.69 206.18 1302.38 207.223 1298.48C208.267 1294.59 205.956 1290.58 202.06 1289.54Z" fill="#D1C4E9"/>
<path fill-rule="evenodd" clip-rule="evenodd" d="M185.66 1350.75C181.764 1349.7 177.76 1352.01 176.717 1355.91C175.673 1359.8 177.984 1363.81 181.88 1364.85C185.775 1365.9 189.779 1363.58 190.823 1359.69C191.867 1355.79 189.555 1351.79 185.66 1350.75Z" fill="#D1C4E9"/>
<path fill-rule="evenodd" clip-rule="evenodd" d="M169.259 1411.95C165.364 1410.91 161.36 1413.22 160.316 1417.12C159.272 1421.01 161.584 1425.02 165.48 1426.06C169.375 1427.1 173.379 1424.79 174.423 1420.9C175.466 1417 173.155 1413 169.259 1411.95Z" fill="#D1C4E9"/>
<path fill-rule="evenodd" clip-rule="evenodd" d="M152.859 1473.16C148.963 1472.12 144.959 1474.43 143.916 1478.32C142.872 1482.22 145.184 1486.22 149.079 1487.27C152.975 1488.31 156.978 1486 158.022 1482.1C159.066 1478.21 156.755 1474.2 152.859 1473.16Z" fill="#D1C4E9"/>
<path fill-rule="evenodd" clip-rule="evenodd" d="M263.268 1305.94C259.372 1304.9 255.368 1307.21 254.325 1311.1C253.281 1315 255.592 1319 259.488 1320.05C263.383 1321.09 267.387 1318.78 268.431 1314.88C269.475 1310.99 267.163 1306.98 263.268 1305.94Z" fill="#D1C4E9"/>
<path fill-rule="evenodd" clip-rule="evenodd" d="M246.867 1367.15C242.972 1366.1 238.968 1368.41 237.924 1372.31C236.881 1376.2 239.192 1380.21 243.087 1381.25C246.983 1382.3 250.987 1379.98 252.031 1376.09C253.074 1372.19 250.763 1368.19 246.867 1367.15Z" fill="#D1C4E9"/>
<path fill-rule="evenodd" clip-rule="evenodd" d="M230.467 1428.35C226.571 1427.31 222.568 1429.62 221.524 1433.52C220.48 1437.41 222.791 1441.42 226.687 1442.46C230.583 1443.5 234.586 1441.19 235.63 1437.3C236.674 1433.4 234.362 1429.4 230.467 1428.35Z" fill="#D1C4E9"/>
<path fill-rule="evenodd" clip-rule="evenodd" d="M214.066 1489.56C210.171 1488.52 206.167 1490.83 205.123 1494.72C204.08 1498.62 206.391 1502.62 210.287 1503.67C214.182 1504.71 218.186 1502.4 219.23 1498.5C220.273 1494.61 217.962 1490.6 214.066 1489.56Z" fill="#D1C4E9"/>
<path fill-rule="evenodd" clip-rule="evenodd" d="M324.475 1322.34C320.579 1321.3 316.575 1323.61 315.532 1327.5C314.488 1331.4 316.799 1335.4 320.695 1336.45C324.59 1337.49 328.594 1335.18 329.638 1331.28C330.682 1327.39 328.37 1323.38 324.475 1322.34Z" fill="#D1C4E9"/>
<path fill-rule="evenodd" clip-rule="evenodd" d="M308.074 1383.55C304.179 1382.5 300.175 1384.82 299.131 1388.71C298.088 1392.61 300.399 1396.61 304.294 1397.65C308.19 1398.7 312.194 1396.39 313.238 1392.49C314.281 1388.59 311.97 1384.59 308.074 1383.55Z" fill="#D1C4E9"/>
<path fill-rule="evenodd" clip-rule="evenodd" d="M291.674 1444.75C287.778 1443.71 283.775 1446.02 282.731 1449.92C281.687 1453.81 283.999 1457.82 287.894 1458.86C291.79 1459.9 295.793 1457.59 296.837 1453.7C297.881 1449.8 295.569 1445.8 291.674 1444.75Z" fill="#D1C4E9"/>
<path fill-rule="evenodd" clip-rule="evenodd" d="M275.274 1505.96C271.378 1504.92 267.374 1507.23 266.33 1511.12C265.287 1515.02 267.598 1519.02 271.494 1520.07C275.389 1521.11 279.393 1518.8 280.437 1514.9C281.48 1511.01 279.169 1507.01 275.274 1505.96Z" fill="#D1C4E9"/>
<path fill-rule="evenodd" clip-rule="evenodd" d="M385.682 1338.74C381.786 1337.7 377.782 1340.01 376.739 1343.9C375.695 1347.8 378.006 1351.8 381.902 1352.85C385.798 1353.89 389.801 1351.58 390.845 1347.68C391.889 1343.79 389.577 1339.78 385.682 1338.74Z" fill="#D1C4E9"/>
<path fill-rule="evenodd" clip-rule="evenodd" d="M369.281 1399.95C365.386 1398.9 361.382 1401.22 360.338 1405.11C359.295 1409.01 361.606 1413.01 365.502 1414.05C369.397 1415.1 373.401 1412.79 374.445 1408.89C375.488 1405 373.177 1400.99 369.281 1399.95Z" fill="#D1C4E9"/>
<path fill-rule="evenodd" clip-rule="evenodd" d="M352.881 1461.15C348.985 1460.11 344.982 1462.42 343.938 1466.32C342.894 1470.21 345.206 1474.22 349.101 1475.26C352.997 1476.3 357 1473.99 358.044 1470.1C359.088 1466.2 356.777 1462.2 352.881 1461.15Z" fill="#D1C4E9"/>
<path fill-rule="evenodd" clip-rule="evenodd" d="M336.481 1522.36C332.585 1521.32 328.581 1523.63 327.538 1527.53C326.494 1531.42 328.805 1535.42 332.701 1536.47C336.596 1537.51 340.6 1535.2 341.644 1531.3C342.687 1527.41 340.376 1523.41 336.481 1522.36Z" fill="#D1C4E9"/>
<rect opacity="0.203637" x="118.197" y="66.4734" width="196" height="196" rx="29" transform="rotate(30 118.197 66.4734)" fill="#D1C4E9"/>
<path fill-rule="evenodd" clip-rule="evenodd" d="M159.047 59.8672C156.195 57.0154 151.572 57.0154 148.72 59.8672C145.869 62.7182 145.869 67.342 148.72 70.1937C151.572 73.0455 156.196 73.0448 159.047 70.1937C161.899 67.342 161.899 62.7189 159.047 59.8672Z" fill="#D1C4E9"/>
<path fill-rule="evenodd" clip-rule="evenodd" d="M114.24 104.674C111.389 101.822 106.765 101.822 103.914 104.674C101.063 107.525 101.062 112.149 103.914 115C106.765 117.852 111.389 117.851 114.24 115C117.092 112.149 117.092 107.526 114.24 104.674Z" fill="#D1C4E9"/>
<path fill-rule="evenodd" clip-rule="evenodd" d="M69.4337 149.481C66.5819 146.629 61.9589 146.629 59.1071 149.481C56.2553 152.332 56.2553 156.956 59.1071 159.807C61.9589 162.659 66.5819 162.659 69.4337 159.807C72.2854 156.956 72.2854 152.332 69.4337 149.481Z" fill="#D1C4E9"/>
<path fill-rule="evenodd" clip-rule="evenodd" d="M24.627 194.287C21.7752 191.435 17.1514 191.436 14.3004 194.287C11.4486 197.139 11.4486 201.762 14.3004 204.614C17.1522 207.466 21.7752 207.466 24.627 204.614C27.478 201.763 27.4787 197.139 24.627 194.287Z" fill="#D1C4E9"/>
<path fill-rule="evenodd" clip-rule="evenodd" d="M203.854 104.674C201.002 101.823 196.379 101.823 193.528 104.674C190.676 107.525 190.676 112.149 193.528 115.001C196.379 117.853 201.003 117.852 203.854 115.001C206.706 112.149 206.706 107.526 203.854 104.674Z" fill="#D1C4E9"/>
<path fill-rule="evenodd" clip-rule="evenodd" d="M159.047 149.481C156.196 146.629 151.573 146.629 148.721 149.481C145.87 152.332 145.869 156.956 148.721 159.808C151.573 162.659 156.196 162.659 159.047 159.808C161.899 156.956 161.899 152.333 159.047 149.481Z" fill="#D1C4E9"/>
<path fill-rule="evenodd" clip-rule="evenodd" d="M114.241 194.288C111.389 191.436 106.766 191.436 103.914 194.288C101.062 197.139 101.062 201.762 103.914 204.614C106.766 207.466 111.389 207.466 114.241 204.614C117.092 201.762 117.092 197.139 114.241 194.288Z" fill="#D1C4E9"/>
<path fill-rule="evenodd" clip-rule="evenodd" d="M69.434 239.094C66.5822 236.242 61.9585 236.243 59.1074 239.094C56.2556 241.946 56.2556 246.569 59.1074 249.421C61.9592 252.273 66.5822 252.273 69.434 249.421C72.285 246.57 72.2857 241.946 69.434 239.094Z" fill="#D1C4E9"/>
<path fill-rule="evenodd" clip-rule="evenodd" d="M248.661 149.481C245.809 146.629 241.186 146.629 238.334 149.481C235.483 152.332 235.482 156.956 238.334 159.808C241.186 162.659 245.81 162.659 248.661 159.808C251.513 156.956 251.513 152.333 248.661 149.481Z" fill="#D1C4E9"/>
<path fill-rule="evenodd" clip-rule="evenodd" d="M203.854 194.288C201.002 191.436 196.379 191.436 193.527 194.288C190.676 197.139 190.676 201.762 193.527 204.614C196.379 207.466 201.003 207.465 203.854 204.614C206.706 201.762 206.706 197.139 203.854 194.288Z" fill="#D1C4E9"/>
<path fill-rule="evenodd" clip-rule="evenodd" d="M159.047 239.094C156.196 236.242 151.573 236.242 148.721 239.094C145.869 241.946 145.869 246.569 148.721 249.421C151.573 252.273 156.196 252.273 159.047 249.421C161.899 246.569 161.899 241.946 159.047 239.094Z" fill="#D1C4E9"/>
<path fill-rule="evenodd" clip-rule="evenodd" d="M114.241 283.901C111.389 281.049 106.765 281.05 103.914 283.901C101.062 286.753 101.062 291.376 103.914 294.228C106.766 297.079 111.389 297.079 114.241 294.228C117.092 291.376 117.092 286.753 114.241 283.901Z" fill="#D1C4E9"/>
<path fill-rule="evenodd" clip-rule="evenodd" d="M293.467 194.288C290.616 191.436 285.993 191.436 283.141 194.288C280.29 197.139 280.289 201.762 283.141 204.614C285.993 207.466 290.616 207.465 293.467 204.614C296.319 201.762 296.319 197.139 293.467 194.288Z" fill="#D1C4E9"/>
<path fill-rule="evenodd" clip-rule="evenodd" d="M248.661 239.094C245.809 236.242 241.186 236.242 238.334 239.094C235.483 241.945 235.482 246.569 238.334 249.421C241.186 252.273 245.81 252.272 248.661 249.421C251.512 246.569 251.512 241.946 248.661 239.094Z" fill="#D1C4E9"/>
<path fill-rule="evenodd" clip-rule="evenodd" d="M203.854 283.901C201.002 281.049 196.379 281.049 193.527 283.901C190.676 286.753 190.676 291.376 193.527 294.228C196.379 297.079 201.002 297.079 203.854 294.228C206.706 291.376 206.706 286.753 203.854 283.901Z" fill="#D1C4E9"/>
<path fill-rule="evenodd" clip-rule="evenodd" d="M159.047 328.708C156.196 325.856 151.572 325.857 148.721 328.708C145.869 331.559 145.869 336.182 148.721 339.034C151.573 341.886 156.196 341.886 159.047 339.034C161.898 336.183 161.899 331.559 159.047 328.708Z" fill="#D1C4E9"/>
<ellipse opacity="0.203246" cx="790.304" cy="323.12" rx="98.5" ry="98" transform="rotate(30 790.304 323.12)" stroke="#00BCD4" stroke-width="21"/>
<defs>
<linearGradient id="paint0_linear_0_364" x1="2687.62" y1="-2730.09" x2="479.567" y2="1394.77" gradientUnits="userSpaceOnUse">
<stop offset="0.379844" stop-color="#868CFF"/>
<stop offset="1" stop-color="#4318FF"/>
</linearGradient>
</defs>
</svg>
